# Blender 4.2.0
# www.blender.org
o Cube
v 0.966276 1.000000 -0.966276
v 1.000000 0.966276 -1.000000
v 0.966276 1.000000 0.966276
v 1.000000 0.966276 1.000000
v -0.966276 1.000000 -0.966276
v -1.000000 0.966276 -1.000000
v -0.966276 1.000000 0.966276
v -1.000000 0.966276 1.000000
v 1.000000 -0.950029 -1.000000
v 0.950029 -1.000000 -0.950029
v 0.950029 -1.000000 0.950029
v 1.000000 -0.950029 1.000000
v -1.000000 -0.950029 -1.000000
v -0.950029 -1.000000 -0.950029
v -0.950029 -1.000000 0.950029
v -1.000000 -0.950029 1.000000
vn -1.0000 -0.0000 -0.0000
vn 1.0000 -0.0000 -0.0000
vn -0.0000 1.0000 -0.0000
vn -0.0000 -0.0000 1.0000
vn -0.0000 0.7071 0.7071
vn 0.7071 0.7071 -0.0000
vn -0.7071 0.7071 -0.0000
vn -0.0000 0.7071 -0.7071
vn -0.0000 -1.0000 -0.0000
vn -0.7071 -0.7071 -0.0000
vn -0.0000 -0.7071 -0.7071
vn -0.0000 -0.7071 0.7071
vn 0.7071 -0.7071 -0.0000
vn -0.0000 -0.0000 -1.0000
s 0
f 16//1 8//1 6//1 13//1
f 9//2 2//2 4//2 12//2
f 1//3 5//3 7//3 3//3
f 12//4 4//4 8//4 16//4
f 3//5 7//5 8//5 4//5
f 1//6 3//6 4//6 2//6
f 7//7 5//7 6//7 8//7
f 5//8 1//8 2//8 6//8
f 14//9 10//9 11//9 15//9
f 14//10 15//10 16//10 13//10
f 10//11 14//11 13//11 9//11
f 15//12 11//12 12//12 16//12
f 11//13 10//13 9//13 12//13
f 13//14 6//14 2//14 9//14
